<svg width="35" height="35" viewBox="0 0 35 35" fill="none" xmlns="http://www.w3.org/2000/svg">
<rect width="35" height="35" rx="17.5" fill="black"/>
<path d="M15.0127 11.1094C16.5592 9.63019 18.9965 9.63019 20.543 11.1094L24.3203 14.7227C25.1091 15.4772 25.5556 16.5218 25.5557 17.6133V21.5762L25.5508 21.7823C25.4469 23.8272 23.8067 25.4665 21.7617 25.5704L21.5557 25.5762H14L13.7939 25.5704C11.7489 25.4666 10.1088 23.8273 10.0049 21.7823L10 21.5762V17.6133C10.0001 16.5902 10.3921 15.6086 11.0908 14.8682L11.2354 14.7227L15.0127 11.1094ZM19.1602 12.5547C18.387 11.8153 17.1687 11.8153 16.3955 12.5547L12.6172 16.168C12.2228 16.5452 12.0001 17.0676 12 17.6133V21.5762C12.0002 22.6807 12.8955 23.5762 14 23.5762H14.874C14.7418 23.2308 14.667 22.8568 14.667 22.4649V21.1192C14.667 20.2682 15.0157 19.4572 15.627 18.8721L15.7529 18.7579C16.9183 17.7586 18.6385 17.7584 19.8037 18.7579C20.4926 19.3489 20.8896 20.2115 20.8896 21.1192V22.4649L20.8848 22.6251C20.8678 22.9591 20.7948 23.2781 20.6807 23.5762H21.5557C22.6601 23.5762 23.5555 22.6806 23.5557 21.5762V17.6133C23.5556 17.0677 23.3328 16.5452 22.9385 16.168L19.1602 12.5547ZM18.502 20.2764C18.0858 19.9195 17.4709 19.9196 17.0547 20.2764C16.8088 20.4875 16.667 20.7951 16.667 21.1192V22.4649C16.667 23.0785 17.1647 23.5762 17.7783 23.5762C18.3917 23.5759 18.8896 23.0783 18.8896 22.4649V21.1192C18.8896 20.7953 18.7476 20.4875 18.502 20.2764Z" fill="black"/>
</svg>
