<svg width="35" height="34" viewBox="0 0 35 34" fill="none" xmlns="http://www.w3.org/2000/svg">
<path d="M4.37533 11.3333H30.6253C31.0121 11.3333 31.383 11.1841 31.6565 10.9184C31.93 10.6527 32.0837 10.2924 32.0837 9.91667C32.0837 9.54094 31.93 9.18061 31.6565 8.91493C31.383 8.64926 31.0121 8.5 30.6253 8.5H4.37533C3.98855 8.5 3.61762 8.64926 3.34413 8.91493C3.07064 9.18061 2.91699 9.54094 2.91699 9.91667C2.91699 10.2924 3.07064 10.6527 3.34413 10.9184C3.61762 11.1841 3.98855 11.3333 4.37533 11.3333ZM30.6253 22.6667H4.37533C3.98855 22.6667 3.61762 22.8159 3.34413 23.0816C3.07064 23.3473 2.91699 23.7076 2.91699 24.0833C2.91699 24.4591 3.07064 24.8194 3.34413 25.0851C3.61762 25.3507 3.98855 25.5 4.37533 25.5H30.6253C31.0121 25.5 31.383 25.3507 31.6565 25.0851C31.93 24.8194 32.0837 24.4591 32.0837 24.0833C32.0837 23.7076 31.93 23.3473 31.6565 23.0816C31.383 22.8159 31.0121 22.6667 30.6253 22.6667ZM30.6253 15.5833H4.37533C3.98855 15.5833 3.61762 15.7326 3.34413 15.9983C3.07064 16.2639 2.91699 16.6243 2.91699 17C2.91699 17.3757 3.07064 17.7361 3.34413 18.0017C3.61762 18.2674 3.98855 18.4167 4.37533 18.4167H30.6253C31.0121 18.4167 31.383 18.2674 31.6565 18.0017C31.93 17.7361 32.0837 17.3757 32.0837 17C32.0837 16.6243 31.93 16.2639 31.6565 15.9983C31.383 15.7326 31.0121 15.5833 30.6253 15.5833Z" fill="#1B1B1B"/>
</svg>
